<svg id="Calque_1" data-name="Calque 1" xmlns="http://www.w3.org/2000/svg" viewBox="0 0 58.88 100"><defs><style>.cls-1{fill:#faebc5;}</style></defs><title>bouton</title><path class="cls-1" d="M50.64,54.73l-19.77-2c0-9.49-.75-19-.75-28.46A5.29,5.29,0,0,0,24.88,19C22,19,21,21.42,21,24.28V64.22c-1.61-2.17-7.78-8.63-7.86-8.74-2-2.75-9-4.39-12.16-2.51-2.72,1.59,2.26,5.44,4.3,8.2,7.42,10,13.29,20,20.71,30a16,16,0,0,0,3.41,4.54,7.81,7.81,0,0,0,2.41,1.85A15.95,15.95,0,0,0,56.12,85.33a5.41,5.41,0,0,0,.06-.74L58.88,61C58.88,58,53.62,54.73,50.64,54.73Z"/><path class="cls-1" d="M17.86,47.69V42a18.9,18.9,0,1,1,16-1.5q.12,3,.23,5.93a24.27,24.27,0,1,0-16.22,1.21Z"/></svg>