<svg id="Calque_1" data-name="Calque 1" xmlns="http://www.w3.org/2000/svg" viewBox="0 0 77.86 93.7"><defs><style>.cls-1{fill:#faebc5;}</style></defs><title>cafe</title><path class="cls-1" d="M80.3,19.8H19.7A1.57,1.57,0,0,1,18.1,18l.6-3.5a1.53,1.53,0,0,1,1.6-1.3H79.8a1.62,1.62,0,0,1,1.6,1.3L82,18A1.71,1.71,0,0,1,80.3,19.8Z" transform="translate(-11.07 -13.2)"/><path class="cls-1" d="M88.9,26.6l-.7-4a1.93,1.93,0,0,0-1.9-1.5H13.7a1.78,1.78,0,0,0-1.9,1.5l-.7,4A1.84,1.84,0,0,0,13,28.7h3.8L26.4,103a4.51,4.51,0,0,0,4.4,3.9H69.3a4.51,4.51,0,0,0,4.4-3.9l9.6-74.3H87A1.84,1.84,0,0,0,88.9,26.6ZM73.5,80.8h-47L22.6,50.5H77.3Z" transform="translate(-11.07 -13.2)"/><path class="cls-1" d="M50,79.1A13.4,13.4,0,1,1,63.4,65.7,13.4,13.4,0,0,1,50,79.1Zm0-23.7A10.35,10.35,0,1,0,60.4,65.7,10.46,10.46,0,0,0,50,55.4Z" transform="translate(-11.07 -13.2)"/><path class="cls-1" d="M49.2,65.4a12.25,12.25,0,0,1,5.5-6.2.28.28,0,0,0,0-.5c-2.5-1-6.1,0-8.8,2.8s-3.9,6.6-2.7,9.1c.2.3.5.5.8.3A10,10,0,0,0,49.2,65.4Z" transform="translate(-11.07 -13.2)"/><path class="cls-1" d="M56.8,60.7a.76.76,0,0,0-.9-.3A11,11,0,0,0,50.7,66a10.68,10.68,0,0,1-2.6,4,10.86,10.86,0,0,1-3,2.2.28.28,0,0,0,0,.5c2.5,1.1,6.1.1,8.9-2.7C57.1,67,58.1,63.2,56.8,60.7Z" transform="translate(-11.07 -13.2)"/></svg>