<svg id="Calque_1" data-name="Calque 1" xmlns="http://www.w3.org/2000/svg" viewBox="0 0 85.3 99.77"><defs><style>.cls-1,.cls-2{fill:#faebc5;}.cls-1{stroke:#010202;stroke-linecap:round;stroke-linejoin:round;stroke-width:2px;}</style></defs><title>capsule</title><path class="cls-1" d="M37,94.67" transform="translate(-7.64 -11.84)"/><path class="cls-2" d="M89.12,41.25C87.28,54.06,75.5,60.5,58.56,59S29.75,47.25,28,35.56C26.08,22.76,39,9.75,58.56,12.13,75.32,14.16,91.5,24.75,89.12,41.25ZM70.22,29.93h0c.67-3.86-2.91-7.6-8.15-8.52S52.18,22.8,51.5,26.66a6.33,6.33,0,0,0,2.15,5.64,11.69,11.69,0,0,0,6,2.87,13.24,13.24,0,0,0,2.28.2C66.19,35.37,69.64,33.22,70.22,29.93Zm-8.84-4.58c3.1.54,5.15,2.5,4.9,3.88s-2.84,2.53-5.93,2a7.76,7.76,0,0,1-3.94-1.83,2.47,2.47,0,0,1-1-2.05c.2-1.15,2-2.13,4.37-2.13A9.07,9.07,0,0,1,61.37,25.36Zm6.87,4.23h0Z" transform="translate(-7.64 -11.84)"/><path class="cls-2" d="M26.5,35.25S26.25,56.5,56.75,61.5c0,0,29,3.75,32.6-16.25L86.83,82.67s-3.33,27.71-43.32,19.8c0,0-34.17-9.47-26.84-37.47Z" transform="translate(-7.64 -11.84)"/><path class="cls-2" d="M88.5,70.67,88.61,75,88,83.25A23.73,23.73,0,0,1,76.83,101c-8.48,5.2-19.5,6.08-34.6,3.12a56,56,0,0,1-16.8-8.59c-10.15-7.8-13.77-17.62-10.78-29.18l1-2.85L17,59.21C9.13,60.3,7.84,70.3,7.84,70.3c-1.28,11.66,3.47,21.94,13.94,30a61.48,61.48,0,0,0,19,9.64L41,110a79.75,79.75,0,0,0,15.41,1.64c9.74,0,17.82-2.3,24.13-6.88a30.17,30.17,0,0,0,12-19.29S94.83,76,88.5,70.67Z" transform="translate(-7.64 -11.84)"/></svg>