<?xml version="1.0" encoding="utf-8"?>
<!-- Generator: Adobe Illustrator 21.0.2, SVG Export Plug-In . SVG Version: 6.00 Build 0)  -->
<svg version="1.1" id="Calque_1" xmlns="http://www.w3.org/2000/svg" xmlns:xlink="http://www.w3.org/1999/xlink" x="0px" y="0px"
	 viewBox="0 0 56 84" style="enable-background:new 0 0 56 84;" xml:space="preserve">
<style type="text/css">
	.st0{fill:#FAEBC5;}
</style>
<title>eau</title>
<path class="st0" d="M27.7,0c12.8,14.3,24.7,31.3,24.7,46.5S41.3,74,27.7,74S3,61.7,3,46.5S14.9,14.3,27.7,0z M43.7,42.7
	c-1-0.1-1.8,0.6-2,1.5c0,0.1,0,0.3,0,0.4c0.5,5.6-2.9,13.1-7.1,16c-0.8,0.6-1,1.7-0.4,2.5c0.5,0.7,1.5,0.9,2.2,0.5l0.1-0.1
	c5.6-3.9,9.3-12,8.6-19.2C45.1,43.5,44.5,42.8,43.7,42.7L43.7,42.7z"/>
</svg>
