<svg id="Calque_1" data-name="Calque 1" xmlns="http://www.w3.org/2000/svg" viewBox="0 0 420.64 444.84"><defs><style>.cls-1{fill:#faebc5;}</style></defs><title>machine</title><path class="cls-1" d="M200.17,0a173.21,173.21,0,0,0-18.61,2.1V69.5H161.25V6.64C88.13,28,34.71,95.5,34.71,175.49V408.18h1.94A36.69,36.69,0,0,0,0,444.84H420.64a36.41,36.41,0,0,0-36.49-36.57H345.4V382.94H295.72a48.1,48.1,0,0,0,39.73-21.12c.66.18,1.2.45,1.86.57a32,32,0,0,0,4.94.33c15.78,0,30-12.49,32.85-30,3.15-19.22-8.73-37.15-26.46-40a31.29,31.29,0,0,0-4.77-.42c-.26,0-.56.18-.81.18a13.67,13.67,0,0,0-13.35-11.16H218.86a13.9,13.9,0,0,0-13.92,13.83V335a48,48,0,0,0,48,48H212.06v25.32H173.3V160.62h87.54v40h35.68v-40H386A175.8,175.8,0,0,0,259.55,6.49v63H239.16V2a184,184,0,0,0-18.61-2v69.5H200.17V0ZM116.35,2.59A34.34,34.34,0,0,0,82,36.89V47.65a180,180,0,0,1,46.68-34.22V2.59Zm-11.17,119.5a17.31,17.31,0,1,1-17.31,17.32,17.33,17.33,0,0,1,17.31-17.32Zm.07,57.45a17.83,17.83,0,0,1,17.88,17.8V365.06a17.88,17.88,0,0,1-35.76,0V197.34A17.83,17.83,0,0,1,105.25,179.54Zm173.55,33.9a4.6,4.6,0,0,0-3.56,1.7c-5.14,6.3-13.75,17.92-13.75,24.76a17.31,17.31,0,0,0,34.63,0c0-6.83-8.66-18.42-13.84-24.76a4.44,4.44,0,0,0-3.48-1.7Zm12.46,24.27a.89.89,0,0,1,.89.89,13.38,13.38,0,0,1-13.35,13.35.89.89,0,0,1,0-1.78,11.58,11.58,0,0,0,11.57-11.57.91.91,0,0,1,.89-.89Zm-15.62,57.36a8.9,8.9,0,0,1,2,.18c-4.39,7.5-13.79,26.26-3.8,36.25,6.83,6.83,1.53,21.33-3.32,31.07-9.15-3.73-15.94-17.14-15.94-33.17,0-18.93,9.44-34.3,21-34.3Zm4.77,1c9.32,3.56,16.18,17.09,16.18,33.33,0,18.93-9.36,34.3-21,34.3a10.12,10.12,0,0,1-2.35-.26c5.14-10.4,10.42-25.91,2.51-33.9-8.78-8.78.76-27,4.61-33.49Zm63.27,13.27h.18a11.07,11.07,0,0,1,2.1.18,14.12,14.12,0,0,1,9.47,6.39A19.92,19.92,0,0,1,358.27,330c-1.45,8.91-8.19,15.61-15.86,15.7A45.19,45.19,0,0,0,343.71,335V309.33Z" transform="translate(0)"/></svg>