<svg id="Calque_1" data-name="Calque 1" xmlns="http://www.w3.org/2000/svg" viewBox="0 0 23 23"><defs><style>.cls-1{fill:#faebc5;}</style></defs><title>sucre</title><path class="cls-1" d="M22.06.94c-1.67-1.68-4.93-1-7.41,1.43a8.18,8.18,0,0,0-2.22,3.77,4.15,4.15,0,0,0,.21,2.81L.29,21.29a1,1,0,1,0,1.41,1.41L14.06,10.35a3.61,3.61,0,0,0,1.6.36,5.16,5.16,0,0,0,1.2-.15,8.18,8.18,0,0,0,3.77-2.22,8.18,8.18,0,0,0,2.22-3.77A3.74,3.74,0,0,0,22.06.94" transform="translate(0 0)"/><path class="cls-1" d="M13.07,17H10.93A1.93,1.93,0,0,0,9,18.93v2.13A1.93,1.93,0,0,0,10.93,23h2.14A1.94,1.94,0,0,0,15,21.07V18.93A1.94,1.94,0,0,0,13.07,17" transform="translate(0 0)"/><path class="cls-1" d="M20.37,12.68a1.93,1.93,0,0,0-2.73,0l-1.51,1.51a1.93,1.93,0,0,0,0,2.73l1.51,1.51a1.94,1.94,0,0,0,2.73,0l1.51-1.51a1.93,1.93,0,0,0,0-2.73Z" transform="translate(0 0)"/><path class="cls-1" d="M22.06.94c-1.67-1.68-4.93-1-7.41,1.43a8.18,8.18,0,0,0-2.22,3.77,4.15,4.15,0,0,0,.21,2.81L.29,21.29a1,1,0,1,0,1.41,1.41L14.06,10.35a3.61,3.61,0,0,0,1.6.36,5.16,5.16,0,0,0,1.2-.15,8.18,8.18,0,0,0,3.77-2.22,8.18,8.18,0,0,0,2.22-3.77A3.74,3.74,0,0,0,22.06.94" transform="translate(0 0)"/><path class="cls-1" d="M13.07,17H10.93A1.93,1.93,0,0,0,9,18.93v2.13A1.93,1.93,0,0,0,10.93,23h2.14A1.94,1.94,0,0,0,15,21.07V18.93A1.94,1.94,0,0,0,13.07,17" transform="translate(0 0)"/><path class="cls-1" d="M20.37,12.68a1.93,1.93,0,0,0-2.73,0l-1.51,1.51a1.93,1.93,0,0,0,0,2.73l1.51,1.51a1.94,1.94,0,0,0,2.73,0l1.51-1.51a1.93,1.93,0,0,0,0-2.73Z" transform="translate(0 0)"/></svg>