<svg id="Calque_1" data-name="Calque 1" xmlns="http://www.w3.org/2000/svg" viewBox="0 0 455.74 535.37"><defs><style>.cls-1{fill:#faebc5;}</style></defs><title>tasse</title><path class="cls-1" d="M124.52,0a39.83,39.83,0,0,0-10.28,4.45c-5.84,3.81-15.12,9.49-22.49,20.63C84.13,35.77,78.58,52.9,81.39,70.88c1.66,8.82,4,17.65,8.41,25.65,4.52,7.54,9.41,15.19,15.13,21.44l15.7,16.42c3.52,4.89,7.74,8.3,10.6,13.19,6,9.2,9.41,17.16,8.5,25.57-1.66,17.85-16.08,30.75-15.21,30.5,0,0,4.21,0,11.08-2.43,6.3-2.82,17.1-7.3,24.68-20.15,8.49-12.55,8.13-33,1.13-48.63a98.13,98.13,0,0,0-13.35-22.9l-14.48-17C115.23,73.5,107.75,53.7,111.81,34c1.82-9.53,4.7-18.64,7.85-24.35,2.82-6,4.85-9.63,4.85-9.63ZM255.27,0A39.83,39.83,0,0,0,245,4.45c-5.84,3.81-15.12,9.49-22.49,20.63-7.62,10.69-13.17,27.82-10.36,45.79,1.66,8.82,4,17.65,8.41,25.65,4.52,7.54,9.37,15.19,15.13,21.44l15.62,16.42c3.56,4.89,7.78,8.3,10.68,13.19,6,9.2,9.41,17.16,8.5,25.57-1.66,17.85-16.08,30.75-15.21,30.5,0,0,4.17,0,11-2.43,6.34-2.82,17.18-7.3,24.76-20.15,8.49-12.55,8.13-33,1.13-48.63a98.13,98.13,0,0,0-13.35-22.9l-14.48-17C246,73.5,238.5,53.7,242.56,34c1.82-9.53,4.7-18.64,7.85-24.35,2.82-6,4.85-9.63,4.85-9.63ZM53,222.09a35.55,35.55,0,0,0-35.6,35.6V360.12A123.21,123.21,0,0,0,140.62,483.35H250.49a123.16,123.16,0,0,0,102-54.13c1.7.42,3.28,1.09,5,1.37a74.07,74.07,0,0,0,12.38,1c40.76,0,77.26-32.32,84.55-77.27,8-49.42-22.44-95.46-68-102.83a74.68,74.68,0,0,0-12.46-1c-.62,0-1.08.33-1.7.33C369,234.54,355.27,222.1,338,222.1H53Zm321,72.17a32.81,32.81,0,0,1,5.42.48c9.78,1.58,18.51,7.39,24.52,16.51a50.73,50.73,0,0,1,7.28,36.17c-3.73,22.87-21.3,40.13-40.94,40.37a121.53,121.53,0,0,0,3.4-27.59V294.35c.11,0,.22-.07.33-.07ZM16.26,497.59A16.25,16.25,0,0,0,0,513.85v5.26a16.25,16.25,0,0,0,16.26,16.26H374.85a16.25,16.25,0,0,0,16.26-16.26v-5.26a16.25,16.25,0,0,0-16.26-16.26Z" transform="translate(0 0)"/></svg>